#!OML:ASF F:\VICON\USERDATA\INSTALL\rory3\rory3.ASF
:FULLY-SPECIFIED
:DEGREES
3721
root -8.98219 17.73 14.8878 1067.63 78.9769 706.91
lowerback 10.4777 2.84868 2.58936
upperback 0.112401 4.16241 0.666476
thorax -5.61999 1.99464 -1.38289
lowerneck -18.3857 -3.87919 -9.45856
upperneck 30.5878 -3.94518 6.23424
head 13.7963 -1.75808 3.50001
rclavicle 4.00675e-015 -4.87022e-015
rhumerus -36.2136 -8.44446 -84.3373
rradius 30.2732
rwrist 4.73795
rhand -16.1878 8.21014
rfingers 7.12502
rthumb 10.0189 -21.5314
lclavicle 4.00675e-015 -4.87022e-015
lhumerus -36.5232 4.28527 84.6659
lradius 29.8939
lwrist -7.01899
lhand -20.2413 26.7107
lfingers 7.12502
lthumb 6.1069 56.6026
rfemur 12.4506 0.145045 24.56
rtibia 18.0663
rfoot -13.3506 -0.406151
rtoes -6.73172
lfemur -23.4111 -2.65775 -21.2644
ltibia 21.1472
lfoot -0.535155 1.17558
ltoes -0.92891
3722
root -8.84598 17.7427 14.8783 1066.89 79.0484 706.231
lowerback 10.4061 2.85108 2.69888
upperback 0.135808 4.17605 0.665262
thorax -5.54678 2.00028 -1.44194
lowerneck -18.3641 -3.93661 -9.54788
upperneck 30.6053 -4.05472 6.39806
head 13.817 -1.79342 3.56425
rclavicle -1.53188e-014 -1.45113e-014
rhumerus -36.217 -8.92607 -84.1241
rradius 30.2055
rwrist 5.17264
rhand -15.8089 8.44732
rfingers 7.12502
rthumb 10.3845 -21.2763
lclavicle -1.53188e-014 -1.45113e-014
lhumerus -36.5473 4.72081 84.4448
lradius 29.558
lwrist -7.2966
lhand -20.2669 26.7543
lfingers 7.12502
lthumb 6.08219 56.647
rfemur 12.2215 0.00827801 24.4881
rtibia 19.3702
rfoot -12.6143 -0.192852
rtoes -9.52632
lfemur -22.9704 -2.27323 -21.3982
ltibia 21.2678
lfoot -0.330309 0.297585
ltoes 1.75705
3723
root -8.70801 17.7627 14.8678 1066.07 79.1431 705.448
lowerback 10.2979 2.81879 2.75492
upperback 0.152352 4.13988 0.729011
thorax -5.47096 1.98387 -1.39462
lowerneck -18.3235 -3.94621 -9.52541
upperneck 30.6325 -4.06464 6.35677
head 13.8195 -1.80051 3.54296
rclavicle -2.29845e-014 1.21259e-014
rhumerus -36.2141 -9.07814 -83.9065
rradius 30.1742
rwrist 5.31587
rhand -15.4009 8.5948
rfingers 7.12502
rthumb 10.7781 -21.1087
lclavicle -2.29845e-014 1.21259e-014
lhumerus -36.6237 5.26841 84.2822
lradius 29.2618
lwrist -7.4462
lhand -20.5185 27.3617
lfingers 7.12502
lthumb 5.83924 57.2613
rfemur 11.8572 -0.211444 24.3662
rtibia 20.8742
rfoot -11.7943 0.264851
rtoes -9.62576
lfemur -22.4844 -2.1817 -21.4528
ltibia 21.3477
lfoot -0.413501 -0.439385
ltoes 4.50433
3724
root -8.57176 17.7832 14.8581 1065.69 79.3028 705.153
lowerback 10.2455 2.8037 2.69044
upperback 0.161076 4.11319 0.77636
thorax -5.44151 1.97392 -1.30235
lowerneck -18.2353 -3.9393 -9.50848
upperneck 30.6723 -4.06351 6.3547
head 13.8169 -1.7977 3.54146
rclavicle 1.92821e-014 -8.74653e-015
rhumerus -36.3151 -9.11928 -83.7228
rradius 30.2398
rwrist 5.34475
rhand -15.4236 8.52094
rfingers 7.12502
rthumb 10.7562 -21.1837
lclavicle 1.92821e-014 -8.74653e-015
lhumerus -36.7339 5.51828 84.3048
lradius 29.03
lwrist -7.41869
lhand -20.9929 28.1107
lfingers 7.12502
lthumb 5.38124 58.0224
rfemur 11.3864 -0.538745 24.116
rtibia 22.629
rfoot -10.8703 0.765372
rtoes -9.23813
lfemur -21.8898 -2.10762 -21.6134
ltibia 21.2854
lfoot -0.561984 -1.2128
ltoes 6.08272
3725
root -8.43485 17.8 14.8515 1066.22 79.4582 705.876
lowerback 10.291 2.81086 2.42815
upperback 0.192603 4.09054 0.744015
thorax -5.45042 1.96925 -1.1884
lowerneck -18.2035 -3.94986 -9.54622
upperneck 30.7027 -4.09822 6.44761
head 13.8301 -1.804 3.58147
rclavicle 1.53623e-014 -1.68967e-015
rhumerus -36.4306 -9.11982 -83.6783
rradius 30.357
rwrist 5.38472
rhand -15.5688 8.35064
rfingers 7.12502
rthumb 10.6161 -21.3612
lclavicle 1.53623e-014 -1.68967e-015
lhumerus -36.8526 5.53424 84.328
lradius 28.8946
lwrist -7.37884
lhand -21.1024 28.5768
lfingers 7.12502
lthumb 5.27551 58.4911
rfemur 10.8765 -0.844201 23.6897
rtibia 24.6281
rfoot -9.85113 1.17325
rtoes -10.3052
lfemur -21.103 -1.99158 -21.9522
ltibia 21.0413
lfoot -0.6768 -1.82918
ltoes 6.18008
3726
root -8.29505 17.8181 14.8416 1068.07 79.6404 707.958
lowerback 10.3203 2.85694 1.97663
upperback 0.263314 4.09071 0.628019
thorax -5.41501 1.98054 -1.05697
lowerneck -18.1825 -3.99379 -9.55604
upperneck 30.6824 -4.16739 6.46675
head 13.8249 -1.83257 3.57825
rclavicle -2.19719e-014 -1.36167e-014
rhumerus -36.4711 -9.09825 -83.6199
rradius 30.4174
rwrist 5.24316
rhand -15.5648 8.38703
rfingers 7.12502
rthumb 10.62 -21.3246
lclavicle -2.19719e-014 -1.36167e-014
lhumerus -36.9199 5.58764 84.3101
lradius 28.7749
lwrist -7.48934
lhand -20.4882 27.8514
lfingers 7.12502
lthumb 5.86852 57.7501
rfemur 10.3217 -1.21588 22.9084
rtibia 26.7352
rfoot -8.65735 1.79281
rtoes -10.3567
lfemur -20.224 -1.96496 -22.5427
ltibia 20.7397
lfoot -0.842603 -2.08511
ltoes 5.72978
3727
root -8.1576 17.841 14.8297 1069.81 79.8967 709.942
lowerback 10.3672 2.87948 1.57079
upperback 0.346116 4.06586 0.511572
thorax -5.37432 1.97836 -0.948346
lowerneck -18.2171 -4.02634 -9.48401
upperneck 30.7189 -4.21171 6.39544
head 13.8491 -1.85215 3.53012
rclavicle -1.95492e-014 -1.14301e-015
rhumerus -36.4864 -9.04815 -83.5556
rradius 30.5059
rwrist 4.93684
rhand -15.631 8.4669
rfingers 7.12502
rthumb 10.5562 -21.248
lclavicle -1.95492e-014 -1.14301e-015
lhumerus -36.8883 5.60283 84.3556
lradius 28.5951
lwrist -7.6295
lhand -19.8048 26.8135
lfingers 7.12502
lthumb 6.52825 56.6929
rfemur 9.66029 -1.67583 22.0853
rtibia 28.8923
rfoot -7.17558 2.54465
rtoes -8.86022
lfemur -19.3704 -1.89116 -23.1452
ltibia 20.4269
lfoot -0.98637 -2.36784
ltoes 5.71615
3728
root -8.0191 17.8747 14.8193 1070.27 80.17 710.613
lowerback 10.3874 2.83805 1.38083
upperback 0.434638 3.98525 0.457095
thorax -5.30346 1.94459 -0.885636
lowerneck -18.3036 -4.02403 -9.37582
upperneck 30.762 -4.22263 6.34986
head 13.8833 -1.84926 3.49208
rclavicle -2.96562e-014 -3.97569e-015
rhumerus -36.4567 -8.71425 -83.6295
rradius 30.6689
rwrist 4.45677
rhand -15.6973 8.46969
rfingers 7.12502
rthumb 10.4922 -21.2485
lclavicle -2.96562e-014 -3.97569e-015
lhumerus -36.8712 5.34659 84.5047
lradius 28.5399
lwrist -7.50933
lhand -19.49 26.7087
lfingers 7.12502
lthumb 6.83218 56.5785
rfemur 8.91609 -2.04165 21.5767
rtibia 31.1093
rfoot -5.38484 3.09168
rtoes -6.23845
lfemur -18.3459 -3.05056 -23.0161
ltibia 20.0799
lfoot -0.977977 -1.71411
ltoes 17.7085
3729
root -7.88263 17.9031 14.8104 1070.05 80.4338 710.493
lowerback 10.3469 2.74468 1.30911
upperback 0.474598 3.85159 0.450927
thorax -5.24588 1.88164 -0.829182
lowerneck -18.3031 -4.03775 -9.45741
upperneck 30.7574 -4.24222 6.42898
head 13.8878 -1.85687 3.53505
rclavicle -2.29845e-015 6.95746e-016
rhumerus -36.3885 -8.38468 -83.7031
rradius 30.7171
rwrist 4.19172
rhand -15.7352 8.43275
rfingers 7.12502
rthumb 10.4556 -21.2872
lclavicle -2.29845e-015 6.95746e-016
lhumerus -36.9725 4.94923 84.7008
lradius 28.5845
lwrist -7.31736
lhand -19.8134 27.0392
lfingers 7.12502
lthumb 6.51992 56.9189
rfemur 7.96509 -2.33412 21.2738
rtibia 33.4529
rfoot -3.29604 3.38374
rtoes -3.09108
lfemur -17.4345 -3.43272 -23.0063
ltibia 19.6192
lfoot -1.00905 -1.77974
ltoes 23.2293
3730
root -7.75057 17.9126 14.7967 1070.44 80.7079 711.02
lowerback 10.3474 2.6857 1.22554
upperback 0.512562 3.7597 0.3859
thorax -5.209 1.83842 -0.835725
lowerneck -18.2137 -4.03975 -9.48746
upperneck 30.6877 -4.27286 6.52062
head 13.8442 -1.86191 3.57023
rclavicle -2.24347e-014 -7.85199e-015
rhumerus -36.296 -8.52353 -83.6175
rradius 30.6357
rwrist 4.52415
rhand -15.8899 8.48005
rfingers 7.12502
rthumb 10.3064 -21.2474
lclavicle -2.24347e-014 -7.85199e-015
lhumerus -37.0047 4.61666 84.8569
lradius 28.5869
lwrist -7.32562
lhand -20.0753 27.29
lfingers 7.12502
lthumb 6.26716 57.1773
rfemur 6.91792 -2.74224 20.7944
rtibia 35.8353
rfoot -1.03678 3.82811
rtoes -0.761672
lfemur -16.6125 -2.94495 -23.4641
ltibia 19.1315
lfoot -1.05225 -2.54048
ltoes 20.8478
3731
root -7.62141 17.9051 14.7827 1071.44 80.9912 712.128
lowerback 10.3392 2.63349 1.02753
upperback 0.527516 3.66323 0.320733
thorax -5.19856 1.79502 -0.778173
lowerneck -18.1811 -4.01254 -9.55971
upperneck 30.6739 -4.27019 6.70027
head 13.8371 -1.8445 3.65674
rclavicle -2.18881e-014 -4.42296e-015
rhumerus -36.2136 -8.61257 -83.5324
rradius 30.6155
rwrist 4.80022
rhand -16.0823 8.49469
rfingers 7.12502
rthumb 10.1208 -21.2419
lclavicle -2.18881e-014 -4.42296e-015
lhumerus -37.0317 4.34736 85.0107
lradius 28.5922
lwrist -7.40642
lhand -20.0573 27.3403
lfingers 7.12502
lthumb 6.28447 57.2271
rfemur 5.7179 -3.14669 20.1951
rtibia 38.3105
rfoot 1.4739 4.37802
rtoes 0.988549
lfemur -15.8729 -1.32721 -24.3813
ltibia 18.4462
lfoot -1.35641 -4.2185
ltoes 8.9096
3732
root -7.49064 17.9187 14.7716 1072.5 81.2393 713.247
lowerback 10.2338 2.56417 0.751749
upperback 0.568021 3.53643 0.29909
thorax -5.11448 1.73993 -0.621771
lowerneck -18.2271 -3.98745 -9.75195
upperneck 30.6339 -4.22586 6.87976
head 13.8353 -1.82388 3.76983
rclavicle 3.91544e-014 2.83268e-015
rhumerus -36.0826 -8.36362 -83.5552
rradius 30.7399
rwrist 4.74864
rhand -15.4136 8.66915
rfingers 7.12502
rthumb 10.7659 -21.035
lclavicle 3.91544e-014 2.83268e-015
lhumerus -37.0818 4.21226 85.1298
lradius 28.7188
lwrist -7.62846
lhand -19.7622 27.2917
lfingers 7.12502
lthumb 6.56943 57.1698
rfemur 4.42157 -3.42746 19.657
rtibia 40.7646
rfoot 4.0704 4.89147
rtoes 1.25973
lfemur -14.9411 -0.872379 -24.8076
ltibia 17.5989
lfoot -1.41728 -4.8019
ltoes 9.08717
3733
root -7.36181 17.9262 14.7619 1073.8 81.4314 714.667
lowerback 10.1979 2.55783 0.462096
upperback 0.629319 3.49124 0.23747
thorax -5.04408 1.72469 -0.513888
lowerneck -18.2777 -3.9891 -9.70062
upperneck 30.6106 -4.22258 6.82036
head 13.8328 -1.82437 3.73591
rclavicle -3.20975e-014 2.6339e-015
rhumerus -35.9756 -8.32791 -83.5274
rradius 30.8256
rwrist 4.90122
rhand -13.221 9.83214
rfingers 7.12502
rthumb 12.8801 -19.7504
lclavicle -3.20975e-014 2.6339e-015
lhumerus -37.0825 3.97999 85.2384
lradius 28.8596
lwrist -7.92461
lhand -19.2845 27.0126
lfingers 7.12502
lthumb 7.0305 56.8759
rfemur 3.17636 -3.54541 19.1486
rtibia 43.2016
rfoot 6.32692 5.48762
rtoes 0.674283
lfemur -13.891 -0.334699 -25.2539
ltibia 16.6311
lfoot -1.42465 -5.49116
ltoes 8.64005
